<svg width="50" height="51" viewBox="0 0 50 51" fill="none" xmlns="http://www.w3.org/2000/svg">
<circle cx="25" cy="25.5" r="25" fill="#4682B4" fill-opacity="0.44"/>
<path d="M22.6525 35.5H17.8549C17.5151 35.5 17.2301 35.3849 16.9998 35.1546C16.7703 34.9251 16.6555 34.6404 16.6555 34.3006V25.9048H14.6166C14.3367 25.9048 14.1468 25.7749 14.0469 25.515C13.9469 25.2551 14.0069 25.0352 14.2268 24.8553L24.2418 15.8298C24.4616 15.6099 24.7315 15.5 25.0513 15.5C25.3712 15.5 25.6411 15.6099 25.8609 15.8298L29.849 19.428V17.509C29.849 17.1692 29.9641 16.8841 30.1944 16.6538C30.4239 16.4243 30.7085 16.3096 31.0484 16.3096H32.2478C32.5876 16.3096 32.8722 16.4243 33.1017 16.6538C33.332 16.8841 33.4472 17.1692 33.4472 17.509V22.6664L35.8759 24.8553C36.0958 25.0352 36.1558 25.2551 36.0558 25.515C35.9559 25.7749 35.766 25.9048 35.4861 25.9048H33.4472V34.3006C33.4472 34.6404 33.332 34.9251 33.1017 35.1546C32.8722 35.3849 32.5876 35.5 32.2478 35.5H27.4502V29.503C27.4502 29.1632 27.3354 28.8781 27.1059 28.6478C26.8756 28.4183 26.5906 28.3036 26.2507 28.3036H23.8519C23.5121 28.3036 23.2275 28.4183 22.998 28.6478C22.7677 28.8781 22.6525 29.1632 22.6525 29.503V35.5ZM22.6525 23.536H27.4502C27.4502 22.8963 27.2103 22.3714 26.7305 21.9612C26.2507 21.5518 25.691 21.3471 25.0513 21.3471C24.4117 21.3471 23.8519 21.5518 23.3722 21.9612C22.8924 22.3714 22.6525 22.8963 22.6525 23.536Z" fill="white"/>
</svg>
