<svg width="23" height="20" viewBox="0 0 23 20" fill="none" xmlns="http://www.w3.org/2000/svg">
<path d="M8.65255 20H3.85495C3.51512 20 3.23006 19.8849 2.99978 19.6546C2.77029 19.4251 2.65555 19.1404 2.65555 18.8006V10.4048H0.616567C0.336707 10.4048 0.146802 10.2749 0.0468516 10.015C-0.0530984 9.75512 0.00687142 9.53523 0.226761 9.35532L10.2418 0.329835C10.4616 0.109945 10.7315 0 11.0513 0C11.3712 0 11.6411 0.109945 11.8609 0.329835L15.849 3.92804V2.009C15.849 1.66917 15.9641 1.38411 16.1944 1.15382C16.4239 0.924338 16.7085 0.809595 17.0484 0.809595H18.2478C18.5876 0.809595 18.8722 0.924338 19.1017 1.15382C19.332 1.38411 19.4472 1.66917 19.4472 2.009V7.16642L21.8759 9.35532C22.0958 9.53523 22.1558 9.75512 22.0558 10.015C21.9559 10.2749 21.766 10.4048 21.4861 10.4048H19.4472V18.8006C19.4472 19.1404 19.332 19.4251 19.1017 19.6546C18.8722 19.8849 18.5876 20 18.2478 20H13.4502V14.003C13.4502 13.6632 13.3354 13.3781 13.1059 13.1478C12.8756 12.9183 12.5906 12.8036 12.2507 12.8036H9.85195C9.51212 12.8036 9.22746 12.9183 8.99798 13.1478C8.76769 13.3781 8.65255 13.6632 8.65255 14.003V20ZM8.65255 8.03598H13.4502C13.4502 7.3963 13.2103 6.87136 12.7305 6.46117C12.2507 6.05177 11.691 5.84708 11.0513 5.84708C10.4117 5.84708 9.85195 6.05177 9.37219 6.46117C8.89243 6.87136 8.65255 7.3963 8.65255 8.03598Z" fill="white"/>
</svg>
