<svg width="500" height="500" viewBox="0 0 500 500" fill="none" xmlns="http://www.w3.org/2000/svg">
<path d="M500 382.398H0V382.648H500V382.398Z" fill="#EBEBEB"/>
<path d="M449.901 398.494H416.779V398.744H449.901V398.494Z" fill="#EBEBEB"/>
<path d="M331.22 401.208H322.527V401.458H331.22V401.208Z" fill="#EBEBEB"/>
<path d="M415.778 389.208H396.586V389.458H415.778V389.208Z" fill="#EBEBEB"/>
<path d="M95.652 390.888H52.459V391.138H95.652V390.888Z" fill="#EBEBEB"/>
<path d="M110.889 390.888H104.556V391.138H110.889V390.888Z" fill="#EBEBEB"/>
<path d="M225.147 395.111H131.471V395.361H225.147V395.111Z" fill="#EBEBEB"/>
<path d="M237.014 337.8H43.915C40.768 337.8 38.207 335.239 38.207 332.092V60.66C38.207 57.513 40.768 54.952 43.915 54.952H237.014C240.16 54.952 242.721 57.513 242.721 60.66V332.092C242.721 335.239 240.16 337.8 237.014 337.8ZM43.915 55.203C40.905 55.203 38.457 57.651 38.457 60.661V332.093C38.457 335.103 40.905 337.551 43.915 337.551H237.014C240.023 337.551 242.471 335.103 242.471 332.093V60.66C242.471 57.651 240.023 55.202 237.014 55.202L43.915 55.203Z" fill="#EBEBEB"/>
<path d="M453.31 337.8H260.212C257.065 337.8 254.505 335.239 254.505 332.092V60.66C254.505 57.513 257.066 54.952 260.212 54.952H453.31C456.458 54.952 459.018 57.513 459.018 60.66V332.092C459.019 335.239 456.458 337.8 453.31 337.8ZM260.212 55.203C257.203 55.203 254.755 57.651 254.755 60.661V332.093C254.755 335.103 257.203 337.551 260.212 337.551H453.31C456.32 337.551 458.768 335.103 458.768 332.093V60.66C458.768 57.651 456.32 55.202 453.31 55.202L260.212 55.203Z" fill="#EBEBEB"/>
<path d="M54.9741 382.398H82.1621L82.1621 309.956H54.9741L54.9741 382.398Z" fill="#E6E6E6"/>
<path d="M60.138 382.398H54.974V363.254H65.552L60.138 382.398Z" fill="#F0F0F0"/>
<path d="M210.102 382.398H237.29V309.956H210.102V382.398Z" fill="#E6E6E6"/>
<path d="M54.9735 377.173H214.609V309.956H54.9735V377.173Z" fill="#F0F0F0"/>
<path d="M209.445 382.398H214.609V363.254H204.03L209.445 382.398Z" fill="#F0F0F0"/>
<path d="M209.8 369.08H161.48V317.364H209.8V369.08ZM162.48 368.08H208.8V318.364H162.48V368.08Z" fill="#E6E6E6"/>
<path d="M158.951 369.08H110.631V317.364H158.951V369.08ZM111.631 368.08H157.951V318.364H111.631V368.08Z" fill="#E6E6E6"/>
<path d="M108.103 369.08H59.781V317.364H108.102L108.103 369.08ZM60.781 368.08H107.102V318.364H60.781V368.08Z" fill="#E6E6E6"/>
<path d="M271.464 231.659L431.67 231.659V95.2502L271.464 95.2502V231.659Z" fill="#E6E6E6"/>
<path d="M267.859 231.659L430.104 231.659V95.2502L267.859 95.2502V231.659Z" fill="#F5F5F5"/>
<path d="M423.631 225.113V101.797L274.33 101.797V225.113L423.631 225.113Z" fill="#FAFAFA"/>
<path d="M405.311 225.113L346.55 101.797H326.591L385.352 225.113H405.311Z" fill="white"/>
<path d="M379.695 225.113L320.933 101.797H307.19L365.951 225.113H379.695Z" fill="white"/>
<path d="M329.767 225.113V101.797H322.046V225.113H329.767Z" fill="#E6E6E6"/>
<path d="M381.087 225.113V101.797H373.366V225.113H381.087Z" fill="#E6E6E6"/>
<path d="M328.375 229.267V96.9297H318.616V229.267H328.375Z" fill="#F5F5F5"/>
<path d="M379.694 229.266V96.9294H369.935V229.266H379.694Z" fill="#F5F5F5"/>
<path d="M275.017 225.113V101.797H274.33V225.113H275.017Z" fill="#E6E6E6"/>
<path d="M265.141 86.832H438.706C439.165 86.832 439.541 87.208 439.541 87.667C439.541 88.126 439.165 88.502 438.706 88.502H265.141C264.682 88.502 264.306 88.126 264.306 87.667C264.306 87.208 264.682 86.832 265.141 86.832Z" fill="#E6E6E6"/>
<path d="M431.67 92.3411C432.29 92.3411 432.797 91.8341 432.797 91.2141V88.7941C432.797 88.1741 432.29 87.6671 431.67 87.6671C431.05 87.6671 430.543 88.1741 430.543 88.7941V91.2141C430.543 91.8341 431.05 92.3411 431.67 92.3411Z" fill="#E6E6E6"/>
<path d="M277.728 92.3411C278.348 92.3411 278.855 91.8341 278.855 91.2141V88.7941C278.855 88.1741 278.348 87.6671 277.728 87.6671C277.108 87.6671 276.601 88.1741 276.601 88.7941V91.2141C276.601 91.8341 277.108 92.3411 277.728 92.3411Z" fill="#E6E6E6"/>
<path opacity="0.6" d="M265.408 155.369L427.534 155.369V87.6668L265.408 87.6668V155.369Z" fill="#E0E0E0"/>
<path d="M113.245 309.956H90.572C88.161 309.956 86.206 308.001 86.206 305.59V266.418C86.206 264.007 88.161 262.052 90.572 262.052H113.245C115.656 262.052 117.611 264.007 117.611 266.418V305.59C117.611 308.001 115.657 309.956 113.245 309.956Z" fill="#FAFAFA"/>
<path d="M116.146 262.617H87.672C86.862 262.617 86.206 261.961 86.206 261.151V259.965C86.206 259.155 86.862 258.499 87.672 258.499H116.146C116.956 258.499 117.612 259.155 117.612 259.965V261.151C117.611 261.961 116.955 262.617 116.146 262.617Z" fill="#E6E6E6"/>
<path d="M199.331 309.956H182.875C181.125 309.956 179.706 308.537 179.706 306.787V278.356C179.706 276.606 181.125 275.187 182.875 275.187H199.331C201.081 275.187 202.5 276.606 202.5 278.356V306.787C202.5 308.537 201.081 309.956 199.331 309.956Z" fill="#F0F0F0"/>
<path d="M201.436 275.598H180.77C180.183 275.598 179.706 275.122 179.706 274.534V273.673C179.706 273.085 180.182 272.609 180.77 272.609H201.436C202.024 272.609 202.5 273.085 202.5 273.673V274.534C202.5 275.121 202.024 275.598 201.436 275.598Z" fill="#E6E6E6"/>
<path d="M147.122 309.956H115.964C112.65 309.956 109.964 307.27 109.964 303.956V288.021C109.964 284.707 112.65 282.021 115.964 282.021H147.122C150.436 282.021 153.122 284.707 153.122 288.021V303.956C153.122 307.269 150.436 309.956 147.122 309.956Z" fill="#F0F0F0"/>
<path d="M151.108 282.799H111.978C110.865 282.799 109.964 281.897 109.964 280.785V279.156C109.964 278.043 110.866 277.142 111.978 277.142H151.108C152.221 277.142 153.122 278.044 153.122 279.156V280.785C153.122 281.897 152.22 282.799 151.108 282.799Z" fill="#F5F5F5"/>
<path d="M282.435 382.398H287.473V299.755H282.435V382.398Z" fill="#E6E6E6"/>
<path d="M427.956 283.672H400.666V299.755H427.956V283.672Z" fill="#E6E6E6"/>
<path d="M264.986 299.755H400.667V283.672H264.986V299.755Z" fill="#F5F5F5"/>
<path d="M427.956 326.618H400.666V342.701H427.956V326.618Z" fill="#E6E6E6"/>
<path d="M264.986 342.702H400.667V326.619H264.986V342.702Z" fill="#F5F5F5"/>
<path d="M418.116 382.398H423.154V299.755H418.116V382.398Z" fill="#E6E6E6"/>
<path d="M395.629 382.398H400.667V299.755H395.629V382.398Z" fill="#F5F5F5"/>
<path d="M264.986 382.398H270.024V299.755H264.986V382.398Z" fill="#F5F5F5"/>
<path d="M69.6784 174.035H133.82V102.101L69.6784 102.101L69.6784 174.035Z" fill="#F0F0F0"/>
<path d="M65.1559 174.035H132.822V102.101L65.1559 102.101L65.1559 174.035Z" fill="#F5F5F5"/>
<path d="M70.8246 107.77V168.367H127.154V107.77H70.8246Z" fill="white"/>
<path d="M89.648 120.599C85.211 120.599 80.995 123.203 79.176 127.522C76.765 133.246 79.487 139.917 85.225 142.328L127.158 159.974V135.421L93.997 121.473C92.576 120.88 91.097 120.599 89.648 120.599Z" fill="#F0F0F0"/>
<path d="M154.858 210.002H219V138.068H154.858V210.002Z" fill="#F0F0F0"/>
<path d="M150.336 210.002H218.002V138.068H150.336V210.002Z" fill="#F5F5F5"/>
<path d="M156.003 143.736V204.333H212.332V143.736H156.003Z" fill="white"/>
<path d="M190.509 167.165L156.006 152.646V177.778L181.531 188.512C187.406 190.98 194.233 188.194 196.701 182.32C199.169 176.461 196.383 169.633 190.509 167.165Z" fill="#F0F0F0"/>
<path d="M250 427.561C357.082 427.561 443.889 422.492 443.889 416.238C443.889 409.984 357.082 404.915 250 404.915C142.918 404.915 56.111 409.984 56.111 416.238C56.111 422.492 142.918 427.561 250 427.561Z" fill="#F5F5F5"/>
<path d="M194.071 116.206C195.03 112 205.53 108 214.53 114.167C223.53 120.334 225.914 130.915 223.03 139.449C218.197 153.75 243.413 153.221 249.251 177.333C253.861 196.376 249.585 223.242 223.86 221.781C184.59 219.551 187.981 181.166 186.255 161C184.53 140.833 163.112 118.245 194.071 116.206Z" fill="#263238"/>
<path d="M181.097 170.059C180.931 172.978 180.588 175.652 180.205 178.424C179.814 181.172 179.299 183.9 178.704 186.621C178.096 189.339 177.452 192.057 176.594 194.738C175.781 197.426 174.817 200.094 173.678 202.716L172.796 204.676C172.672 204.974 172.434 205.408 172.245 205.776C172.044 206.156 171.829 206.49 171.62 206.846C170.769 208.214 169.832 209.382 168.883 210.497C166.984 212.72 164.957 214.666 162.885 216.522C158.693 220.189 154.375 223.489 149.729 226.482L147.055 223.031C148.939 221.207 150.855 219.327 152.709 217.448C154.58 215.58 156.393 213.663 158.128 211.721C159.873 209.794 161.534 207.813 162.981 205.827C163.699 204.835 164.345 203.823 164.857 202.873C164.969 202.64 165.106 202.399 165.201 202.176C165.298 201.935 165.385 201.779 165.503 201.45L166.175 199.69C167.913 194.961 169.146 189.935 170.152 184.858C170.663 182.317 171.026 179.738 171.41 177.167C171.781 174.617 172.074 171.95 172.299 169.506L181.097 170.059Z" fill="#FFB573"/>
<path d="M175.098 159.555C171.546 160.459 169.061 175.078 169.061 175.078L182.647 184.317C182.647 184.317 188.236 166.987 185.503 163.082C182.657 159.015 180.282 158.235 175.098 159.555Z" fill="#93C1F9"/>
<path opacity="0.2" d="M175.419 162.82L172.69 177.555L178.192 181.286L175.419 162.82Z" fill="black"/>
<path d="M148.68 221.781L139.528 223.242L144.745 229.024C144.745 229.024 150.14 227.791 151.086 224.335L148.68 221.781Z" fill="#FFB573"/>
<path d="M135.199 224.387L140.419 230.041L144.745 229.025L139.528 223.242L135.199 224.387Z" fill="#FFB573"/>
<path d="M194.317 405.604H185.698L185.123 385.644H193.742L194.317 405.604Z" fill="#FFB573"/>
<path d="M253.922 380.202L245.943 383.46L235.833 366.028L243.813 362.77L253.922 380.202Z" fill="#FFB573"/>
<path d="M244.44 382.264L252.764 377.317C253.067 377.137 253.438 377.201 253.656 377.472L258.518 383.495C259.022 384.12 258.819 385.115 258.113 385.518C255.181 387.193 253.681 387.853 250.02 390.029C247.768 391.367 242.473 395.953 239.363 397.801C236.321 399.608 234.26 396.672 235.389 395.624C240.454 390.925 242.491 386.26 243.471 383.455C243.649 382.949 243.997 382.527 244.44 382.264Z" fill="#263238"/>
<path d="M185.403 404.606H195.086C195.438 404.606 195.724 404.851 195.774 405.195L196.877 412.856C196.991 413.651 196.308 414.403 195.495 414.389C192.119 414.331 190.492 414.133 186.234 414.133C183.614 414.133 178.195 414.405 174.578 414.405C171.04 414.405 170.767 410.828 172.274 410.504C179.029 409.051 181.687 407.048 183.962 405.137C184.373 404.792 184.887 404.606 185.403 404.606Z" fill="#263238"/>
<g opacity="0.2">
<path d="M185.125 385.65L185.42 395.938H194.042L193.747 385.65H185.125Z" fill="black"/>
<path d="M243.817 362.774L235.834 366.033L241.049 375.017L249.032 371.758L243.817 362.774Z" fill="black"/>
</g>
<path d="M175.098 159.555C175.098 159.555 170.992 161.001 179.217 211.575C193.107 211.575 207.463 211.575 214.222 211.575C213.635 197.328 213.618 188.543 220.427 159.305C220.427 159.305 213.093 157.71 205.562 157.347C199.671 157.063 194.845 156.875 189.667 157.348C182.84 157.971 175.098 159.555 175.098 159.555Z" fill="#93C1F9"/>
<path opacity="0.2" d="M217.54 170.88C214.37 171.67 211.44 175.13 211.79 181.5C212 185.32 213.75 188.21 214.71 189.52C215.27 184.62 216.21 178.93 217.7 171.65L217.54 170.88Z" fill="black"/>
<path d="M191.51 171.333C191.51 171.333 196.058 174.139 197.251 178.305C202.187 174.688 208.901 164.616 209.167 158.591C209.199 157.858 208.577 157.265 207.843 157.254C206.408 157.232 205.564 157.347 205.564 157.347L191.51 171.333Z" fill="#FAFAFA"/>
<path d="M191.51 171.333C191.51 171.333 186.962 174.139 185.77 178.305C180.463 174.416 183.407 161.583 186.447 157.308C188.641 157.165 189.668 157.347 189.668 157.347L191.51 171.333Z" fill="#FAFAFA"/>
<path d="M203.988 139.449C202.985 144.564 201.985 153.934 205.563 157.347C205.563 157.347 200.836 166.417 191.51 171.333C184.419 165.666 189.668 157.347 189.668 157.347C195.371 155.985 195.224 151.754 194.231 147.78L203.988 139.449Z" fill="#FFB573"/>
<path opacity="0.2" d="M200.01 142.848L194.235 147.776C194.473 148.717 194.659 149.67 194.725 150.597C196.904 150.282 200.33 148.426 200.798 146.057C201.019 144.935 200.195 143.378 200.01 142.848Z" fill="black"/>
<path d="M212.562 131.234C210.197 139.455 209.372 142.985 204.212 146.327C196.45 151.354 186.869 146.652 186.73 137.891C186.605 130.005 190.492 117.886 199.388 116.383C208.152 114.901 214.927 123.013 212.562 131.234Z" fill="#FFB573"/>
<path d="M194.808 117.111C195.197 119.889 210.419 128.833 213.308 124.167C216.197 119.5 212.04 116 205.563 115.111C199.086 114.222 194.808 117.111 194.808 117.111Z" fill="#263238"/>
<path d="M204.725 118.616C202.855 121.082 206.815 138.796 212.488 137.131C218.161 135.467 217.897 129.794 213.957 124.561C210.016 119.327 204.725 118.616 204.725 118.616Z" fill="#263238"/>
<path d="M179.217 211.576C179.217 211.576 172.419 277.97 172.983 304.254C173.571 331.593 183.589 393.946 183.589 393.946H195.244C195.244 393.946 193.4 333.191 194.43 306.341C195.553 277.07 204.851 211.576 204.851 211.576H179.217Z" fill="#93C1F9"/>
<path opacity="0.4" d="M179.217 211.576C179.217 211.576 172.419 277.97 172.983 304.254C173.571 331.593 183.589 393.946 183.589 393.946H195.244C195.244 393.946 193.4 333.191 194.43 306.341C195.553 277.07 204.851 211.576 204.851 211.576H179.217Z" fill="black"/>
<path d="M196.254 394.363H182.579L181.576 390.001L196.89 389.468L196.254 394.363Z" fill="#263238"/>
<path opacity="0.2" d="M194.316 228.095C185.718 245.391 192.59 276.943 195.63 288.681C197.189 271.051 199.818 249.501 201.867 233.675C200.564 224.721 198.281 220.121 194.316 228.095Z" fill="black"/>
<path d="M188.461 211.576C188.461 211.576 196.391 280.601 202.379 302.761C209.489 329.07 238.369 373.959 238.369 373.959L249.251 369.517C249.251 369.517 230.6 318.406 225.165 304.546C213.564 274.964 223.494 230.88 214.223 211.576H188.461Z" fill="#93C1F9"/>
<path opacity="0.4" d="M188.461 211.576C188.461 211.576 196.391 280.601 202.379 302.761C209.489 329.07 238.369 373.959 238.369 373.959L249.251 369.517C249.251 369.517 230.6 318.406 225.165 304.546C213.564 274.964 223.494 230.88 214.223 211.576H188.461Z" fill="black"/>
<path d="M250.737 369.574L237.237 375.085L234.067 371.428L249.655 364.229L250.737 369.574Z" fill="#263238"/>
<path d="M91.61 123.761C67.293 145.282 65.031 182.448 86.553 206.765C108.074 231.082 145.234 233.349 169.551 211.827C193.868 190.306 196.14 153.141 174.619 128.824C153.098 104.507 115.927 102.24 91.61 123.761ZM163.385 204.86C142.917 222.975 111.636 221.066 93.521 200.599C75.402 180.126 77.309 148.844 97.777 130.73C118.25 112.61 149.532 114.518 167.651 134.992C185.766 155.458 183.858 186.74 163.385 204.86Z" fill="#263238"/>
<path opacity="0.3" d="M127.819 213.066C102.818 211.541 83.784 190.035 85.309 165.034C86.834 140.026 108.341 120.992 133.342 122.517C158.35 124.042 177.384 145.549 175.858 170.557C174.334 195.558 152.827 214.592 127.819 213.066Z" fill="#93C1F9"/>
<g opacity="0.5">
<path d="M133.341 122.52C133.055 122.502 132.776 122.485 132.489 122.476L85.371 164.176C85.346 164.462 85.328 164.748 85.311 165.035C84.688 175.259 87.51 184.9 92.767 192.834L160.036 133.299C152.808 127.117 143.573 123.144 133.341 122.52Z" fill="#FAFAFA"/>
<path d="M164.391 137.557L96.465 197.673C98.731 200.266 101.292 202.597 104.105 204.618L170.355 145.984C168.692 142.947 166.689 140.121 164.391 137.557Z" fill="#FAFAFA"/>
</g>
<path d="M176.85 212.271L169.11 219.121C167.934 220.162 166.137 220.052 165.097 218.876C164.056 217.7 164.166 215.903 165.342 214.863L173.082 208.013C174.258 206.972 176.055 207.082 177.095 208.258C178.135 209.433 178.026 211.23 176.85 212.271Z" fill="#263238"/>
<path d="M173.999 210.997C179.833 216.13 185.413 221.489 190.917 226.915C196.416 232.345 201.807 237.87 207.129 243.457C212.445 249.049 217.674 254.719 222.851 260.433C227.709 266.43 234.332 270.865 235.322 280.287C235.597 282.903 233.699 285.246 231.083 285.521C230.551 285.577 230.01 285.537 229.516 285.426C220.285 283.298 216.687 276.185 211.325 270.634C206.282 264.8 201.29 258.922 196.385 252.965C191.486 247.004 186.657 240.981 181.936 234.863C177.219 228.74 172.578 222.551 168.192 216.136C166.974 214.355 167.431 211.923 169.212 210.705C170.718 209.676 172.689 209.846 173.999 210.997Z" fill="#263238"/>
<path d="M198.778 130.493C198.627 131.172 198.145 131.642 197.702 131.543C197.258 131.444 197.021 130.814 197.172 130.136C197.323 129.457 197.805 128.987 198.248 129.086C198.692 129.184 198.929 129.814 198.778 130.493Z" fill="#263238"/>
<path d="M191.108 128.787C190.957 129.466 190.475 129.936 190.032 129.837C189.588 129.738 189.351 129.108 189.502 128.43C189.653 127.751 190.135 127.281 190.578 127.38C191.021 127.479 191.258 128.109 191.108 128.787Z" fill="#263238"/>
<path d="M190.765 127.461L189.239 126.629C189.239 126.629 189.793 128.088 190.765 127.461Z" fill="#263238"/>
<path d="M193.201 130.536C193.201 130.536 191.4 133.202 189.819 134.329C190.529 135.364 192.137 135.321 192.137 135.321L193.201 130.536Z" fill="#ED893E"/>
<path d="M195.248 138.801C194.925 138.78 194.586 138.733 194.232 138.654C194.122 138.63 194.052 138.521 194.076 138.411C194.101 138.3 194.211 138.226 194.32 138.256C197.301 138.913 199.152 137.146 199.17 137.128C199.251 137.049 199.38 137.05 199.459 137.131C199.538 137.211 199.536 137.341 199.456 137.42C199.383 137.491 197.834 138.972 195.248 138.801Z" fill="#263238"/>
<path d="M213.108 139.435C212.126 140.911 210.553 141.796 209.12 142.06C206.964 142.457 206.083 140.481 206.847 138.55C207.535 136.812 209.486 134.51 211.57 134.988C213.624 135.458 214.231 137.747 213.108 139.435Z" fill="#FFB573"/>
<path d="M201.973 127.496C201.809 127.549 201.623 127.495 201.517 127.348C200.407 125.82 197.974 125.837 197.95 125.837C197.725 125.84 197.539 125.66 197.536 125.435C197.532 125.21 197.71 125.024 197.938 125.021C198.055 125.019 200.82 125.002 202.178 126.868C202.31 127.05 202.27 127.306 202.088 127.438C202.052 127.464 202.013 127.483 201.973 127.496Z" fill="#263238"/>
<path d="M189.511 123.169C189.372 123.16 189.241 123.08 189.173 122.947C189.071 122.746 189.151 122.501 189.352 122.398C191.364 121.374 193.01 122.296 193.078 122.336C193.274 122.449 193.341 122.698 193.228 122.894C193.116 123.089 192.868 123.155 192.671 123.045C192.605 123.008 191.32 122.313 189.722 123.127C189.655 123.159 189.582 123.173 189.511 123.169Z" fill="#263238"/>
<path d="M241.133 385.534C241.099 385.53 241.065 385.525 241.031 385.518C240.648 385.439 240.364 385.184 240.186 384.758C240.052 384.437 240.142 384.2 240.242 384.058C240.872 383.156 243.986 383.271 244.338 383.287C244.426 383.289 244.491 383.343 244.52 383.419C244.549 383.495 244.53 383.581 244.471 383.638C243.673 384.409 242.2 385.658 241.133 385.534ZM243.826 383.681C242.58 383.672 240.909 383.816 240.577 384.291C240.535 384.351 240.496 384.44 240.563 384.6C240.687 384.897 240.868 385.067 241.114 385.117C241.696 385.247 242.689 384.705 243.826 383.681Z" fill="#93C1F9"/>
<path d="M244.016 383.676C242.952 383.553 241.06 382.822 240.763 381.98C240.7 381.801 240.655 381.454 241.063 381.14C241.322 380.941 241.618 380.873 241.945 380.933C243.174 381.168 244.452 383.295 244.506 383.386C244.543 383.449 244.544 383.526 244.509 383.59C244.474 383.653 244.408 383.693 244.335 383.695C244.24 383.696 244.133 383.69 244.016 383.676ZM241.807 381.325C241.623 381.304 241.461 381.349 241.312 381.464C241.104 381.625 241.115 381.752 241.148 381.846C241.348 382.415 242.902 383.117 243.941 383.261C243.478 382.575 242.601 381.475 241.868 381.335C241.847 381.33 241.826 381.327 241.807 381.325Z" fill="#93C1F9"/>
<path d="M182.167 406.113C181.31 406.113 180.519 405.98 180.076 405.582C179.795 405.329 179.671 404.995 179.708 404.588C179.73 404.345 179.85 404.157 180.054 404.046C181.112 403.464 184.546 405.222 184.934 405.424C185.011 405.464 185.054 405.548 185.042 405.634C185.03 405.72 184.965 405.789 184.88 405.806C184.147 405.95 183.116 406.113 182.167 406.113ZM180.631 404.329C180.473 404.329 180.343 404.352 180.25 404.403C180.166 404.449 180.124 404.517 180.115 404.624C180.09 404.9 180.167 405.113 180.349 405.277C180.872 405.748 182.29 405.83 184.201 405.512C183.018 404.946 181.447 404.329 180.631 404.329Z" fill="#93C1F9"/>
<path d="M184.84 405.809C184.811 405.809 184.783 405.803 184.756 405.791C183.729 405.327 181.697 403.468 181.856 402.491C181.894 402.26 182.057 401.972 182.623 401.915C183.038 401.871 183.422 401.991 183.754 402.268C184.837 403.17 185.036 405.491 185.044 405.589C185.05 405.661 185.017 405.731 184.958 405.773C184.923 405.796 184.881 405.809 184.84 405.809ZM182.786 402.315C182.746 402.315 182.705 402.317 182.663 402.321C182.29 402.359 182.266 402.508 182.258 402.557C182.162 403.143 183.542 404.605 184.589 405.24C184.488 404.565 184.202 403.173 183.491 402.581C183.277 402.402 183.045 402.315 182.786 402.315Z" fill="#93C1F9"/>
<path d="M198.436 129.166L196.91 128.334C196.91 128.334 197.464 129.793 198.436 129.166Z" fill="#263238"/>
<path d="M214.746 209.521L215.641 212.654C215.763 212.897 215.476 213.145 215.071 213.145H179.044C178.728 213.145 178.467 212.99 178.447 212.792L178.131 209.659C178.109 209.442 178.383 209.258 178.728 209.258H214.176C214.437 209.258 214.667 209.365 214.746 209.521Z" fill="#93C1F9"/>
<path opacity="0.2" d="M214.746 209.521L215.641 212.654C215.763 212.897 215.476 213.145 215.071 213.145H179.044C178.728 213.145 178.467 212.99 178.447 212.792L178.131 209.659C178.109 209.442 178.383 209.258 178.728 209.258H214.176C214.437 209.258 214.667 209.365 214.746 209.521Z" fill="black"/>
<path d="M209.869 213.485H210.818C211.007 213.485 211.151 213.387 211.138 213.268L210.693 209.197C210.68 209.078 210.515 208.98 210.326 208.98H209.377C209.188 208.98 209.044 209.077 209.057 209.197L209.502 213.268C209.514 213.387 209.68 213.485 209.869 213.485Z" fill="#93C1F9"/>
<path opacity="0.4" d="M209.869 213.485H210.818C211.007 213.485 211.151 213.387 211.138 213.268L210.693 209.197C210.68 209.078 210.515 208.98 210.326 208.98H209.377C209.188 208.98 209.044 209.077 209.057 209.197L209.502 213.268C209.514 213.387 209.68 213.485 209.869 213.485Z" fill="white"/>
<path d="M181.712 213.485H182.661C182.85 213.485 182.994 213.387 182.981 213.268L182.536 209.197C182.523 209.078 182.358 208.98 182.168 208.98H181.219C181.03 208.98 180.886 209.077 180.899 209.197L181.344 213.268C181.358 213.387 181.523 213.485 181.712 213.485Z" fill="#93C1F9"/>
<path opacity="0.4" d="M181.712 213.485H182.661C182.85 213.485 182.994 213.387 182.981 213.268L182.536 209.197C182.523 209.078 182.358 208.98 182.168 208.98H181.219C181.03 208.98 180.886 209.077 180.899 209.197L181.344 213.268C181.358 213.387 181.523 213.485 181.712 213.485Z" fill="white"/>
<path d="M195.732 213.485H196.681C196.87 213.485 197.014 213.387 197.001 213.268L196.556 209.197C196.543 209.078 196.378 208.98 196.189 208.98H195.24C195.051 208.98 194.907 209.077 194.92 209.197L195.365 213.268C195.377 213.387 195.543 213.485 195.732 213.485Z" fill="#93C1F9"/>
<path opacity="0.4" d="M195.732 213.485H196.681C196.87 213.485 197.014 213.387 197.001 213.268L196.556 209.197C196.543 209.078 196.378 208.98 196.189 208.98H195.24C195.051 208.98 194.907 209.077 194.92 209.197L195.365 213.268C195.377 213.387 195.543 213.485 195.732 213.485Z" fill="white"/>
<path d="M193.188 218.562L184.687 214.763L187.11 223.186C187.11 223.186 192.507 224.411 194.856 221.705L193.188 218.562Z" fill="#FFB573"/>
<path d="M224.509 169.689C224.903 172.643 225.208 175.606 225.56 178.565L226.464 187.458C226.779 190.42 227.02 193.392 227.298 196.359L227.674 200.814L227.767 201.928C227.778 202.039 227.811 202.505 227.82 202.821C227.831 203.167 227.8 203.513 227.778 203.857C227.631 205.231 227.16 206.463 226.592 207.468C225.427 209.483 223.98 210.753 222.584 211.853C221.171 212.931 219.742 213.796 218.305 214.559C215.418 216.056 212.528 217.236 209.595 218.214C206.668 219.199 203.73 220.037 200.781 220.783C197.807 221.478 194.879 222.131 191.826 222.6L190.856 218.344C193.605 217.442 196.424 216.505 199.15 215.46C201.899 214.459 204.61 213.382 207.233 212.192C209.845 210.991 212.42 209.75 214.712 208.292C215.86 207.577 216.941 206.814 217.847 206.019C218.746 205.237 219.464 204.37 219.735 203.76C219.877 203.458 219.905 203.255 219.901 203.142C219.885 203.114 219.897 203.088 219.886 203.062C219.867 203.006 219.891 203.1 219.851 202.841L219.69 201.734L219.051 197.306C218.653 194.351 218.216 191.401 217.855 188.442L216.729 179.569C216.404 176.606 216.032 173.648 215.749 170.679L224.509 169.689Z" fill="#FFB573"/>
<path d="M220.427 159.305C223.934 160.371 228.146 172.448 228.146 172.448L215.874 185.083C215.874 185.083 209.578 172.095 211.051 167.562C212.587 162.841 216.425 158.089 220.427 159.305Z" fill="#93C1F9"/>
<path d="M177.655 216.511L180.065 223.454L187.11 223.186L184.687 214.762L177.655 216.511Z" fill="#FFB573"/>
<path d="M296.365 191.625C298.657 175.18 287.184 161.849 270.739 161.849H300.515H390.862C407.307 161.849 418.78 175.18 416.488 191.625H296.365Z" fill="#263238"/>
<path opacity="0.7" d="M296.365 191.625C298.657 175.18 287.184 161.849 270.739 161.849H300.515H390.862C407.307 161.849 418.78 175.18 416.488 191.625H296.365Z" fill="#97C3F9"/>
<path d="M270.739 161.849H361.087H390.862C374.418 161.849 359.229 175.18 356.937 191.625L329.783 386.462C327.491 402.907 312.302 416.238 295.858 416.238H235.286C218.841 416.238 207.368 402.907 209.66 386.462L236.814 191.625C239.105 175.18 254.294 161.849 270.739 161.849Z" fill="#97C3F9"/>
<path d="M270.231 386.462C267.939 402.907 279.412 416.238 295.857 416.238H266.081H175.734C159.289 416.238 147.816 402.907 150.108 386.462H270.231Z" fill="#263238"/>
<path opacity="0.7" d="M270.231 386.462C267.939 402.907 279.412 416.238 295.857 416.238H266.081H175.734C159.289 416.238 147.816 402.907 150.108 386.462H270.231Z" fill="#97C3F9"/>
<path opacity="0.4" d="M289.491 222.462H336.018C337.373 222.462 338.636 221.353 338.825 219.998C339.014 218.643 338.06 217.534 336.704 217.534H290.177C288.822 217.534 287.559 218.643 287.37 219.998C287.182 221.353 288.136 222.462 289.491 222.462Z" fill="white"/>
<path opacity="0.4" d="M288.213 231.633H322.402C323.757 231.633 325.02 230.524 325.209 229.169C325.398 227.814 324.444 226.705 323.088 226.705H288.9C287.545 226.705 286.282 227.814 286.093 229.169C285.903 230.525 286.858 231.633 288.213 231.633Z" fill="white"/>
<path opacity="0.4" d="M268.938 233.103C275.372 227.102 276.355 217.699 271.134 212.102C265.913 206.504 256.465 206.831 250.031 212.832C243.597 218.833 242.614 228.236 247.835 233.833C253.056 239.431 262.504 239.104 268.938 233.103Z" fill="white"/>
<path d="M246.208 222.963C245.889 225.254 246.17 227.405 246.931 229.282C248.592 233.417 252.582 236.229 257.626 236.229C262.669 236.229 267.443 233.417 270.257 229.282C271.541 227.405 272.421 225.254 272.741 222.963C273.762 215.635 268.651 209.697 261.324 209.697C253.995 209.697 247.229 215.635 246.208 222.963Z" fill="white"/>
<path opacity="0.4" d="M249.819 228.033C251.094 231.205 254.155 233.363 258.024 233.363C261.893 233.363 265.556 231.205 267.715 228.033C265.391 226.321 262.455 225.322 259.145 225.322C255.835 225.322 252.62 226.321 249.819 228.033Z" fill="#263238"/>
<path opacity="0.4" d="M255.394 219.702C255.045 222.206 256.792 224.236 259.296 224.236C261.8 224.236 264.113 222.206 264.462 219.702C264.811 217.198 263.064 215.168 260.56 215.168C258.056 215.168 255.743 217.198 255.394 219.702Z" fill="#263238"/>
<path opacity="0.4" d="M283.906 262.534H299.602C300.957 262.534 302.22 261.425 302.409 260.07C302.598 258.715 301.644 257.606 300.289 257.606H284.593C283.238 257.606 281.975 258.715 281.786 260.07C281.597 261.425 282.551 262.534 283.906 262.534Z" fill="white"/>
<path opacity="0.4" d="M309.073 262.534H331.494C332.849 262.534 334.112 261.425 334.301 260.07C334.49 258.715 333.536 257.606 332.18 257.606H309.76C308.405 257.606 307.142 258.715 306.953 260.07C306.763 261.425 307.718 262.534 309.073 262.534Z" fill="white"/>
<path opacity="0.4" d="M282.628 271.705H321.063C322.418 271.705 323.681 270.596 323.87 269.241C324.059 267.886 323.105 266.777 321.749 266.777H283.314C281.959 266.777 280.696 267.886 280.507 269.241C280.319 270.596 281.273 271.705 282.628 271.705Z" fill="white"/>
<path opacity="0.4" d="M263.353 273.171C269.787 267.17 270.77 257.767 265.549 252.17C260.328 246.572 250.88 246.9 244.446 252.901C238.013 258.902 237.029 268.304 242.25 273.902C247.471 279.499 256.919 279.172 263.353 273.171Z" fill="white"/>
<path d="M240.623 263.035C240.304 265.326 240.585 267.477 241.346 269.354C243.007 273.489 246.998 276.301 252.041 276.301C257.084 276.301 261.858 273.489 264.672 269.354C265.956 267.477 266.836 265.326 267.156 263.035C268.177 255.707 263.067 249.769 255.739 249.769C248.41 249.769 241.644 255.707 240.623 263.035Z" fill="white"/>
<path opacity="0.4" d="M244.234 268.104C245.509 271.276 248.57 273.434 252.439 273.434C256.308 273.434 259.971 271.276 262.13 268.104C259.806 266.392 256.87 265.393 253.559 265.393C250.25 265.393 247.036 266.393 244.234 268.104Z" fill="#263238"/>
<path opacity="0.4" d="M249.81 259.774C249.461 262.278 251.208 264.308 253.712 264.308C256.216 264.308 258.529 262.278 258.878 259.774C259.227 257.27 257.48 255.24 254.976 255.24C252.472 255.24 250.159 257.27 249.81 259.774Z" fill="#263238"/>
<path opacity="0.4" d="M278.322 302.605H305.651C307.006 302.605 308.269 301.496 308.458 300.141C308.647 298.786 307.693 297.677 306.338 297.677H279.009C277.654 297.677 276.391 298.786 276.202 300.141C276.012 301.496 276.966 302.605 278.322 302.605Z" fill="white"/>
<path opacity="0.4" d="M277.043 311.777H319.647C321.002 311.777 322.265 310.668 322.454 309.313C322.643 307.958 321.689 306.849 320.333 306.849H277.73C276.375 306.849 275.112 307.958 274.923 309.313C274.734 310.668 275.688 311.777 277.043 311.777Z" fill="white"/>
<path opacity="0.2" d="M230.39 350.819H295.632C297.532 350.819 299.304 349.264 299.568 347.364C299.833 345.464 298.495 343.909 296.595 343.909H231.353C229.453 343.909 227.681 345.464 227.417 347.364C227.152 349.264 228.49 350.819 230.39 350.819Z" fill="white"/>
<path opacity="0.2" d="M228.598 363.68H276.538C278.438 363.68 280.21 362.125 280.474 360.225C280.739 358.325 279.401 356.77 277.5 356.77H229.56C227.66 356.77 225.888 358.325 225.624 360.225C225.36 362.125 226.698 363.68 228.598 363.68Z" fill="white"/>
<path opacity="0.2" d="M253.072 193.412H330.856C331.839 193.412 332.755 192.608 332.892 191.625C333.029 190.642 332.337 189.838 331.354 189.838H253.57C252.587 189.838 251.671 190.642 251.534 191.625C251.397 192.608 252.089 193.412 253.072 193.412Z" fill="white"/>
<path opacity="0.4" d="M257.768 313.248C264.202 307.247 265.186 297.845 259.965 292.247C254.744 286.65 245.296 286.977 238.862 292.978C232.428 298.979 231.445 308.382 236.666 313.979C241.886 319.577 251.335 319.249 257.768 313.248Z" fill="white"/>
<path d="M235.038 303.107C234.719 305.398 235 307.549 235.76 309.426C237.421 313.561 241.411 316.373 246.455 316.373C251.498 316.373 256.272 313.561 259.086 309.426C260.37 307.549 261.25 305.398 261.57 303.107C262.591 295.779 257.481 289.841 250.153 289.841C242.826 289.84 236.06 295.779 235.038 303.107Z" fill="white"/>
<path opacity="0.4" d="M238.65 308.176C239.925 311.348 242.986 313.506 246.856 313.506C250.726 313.506 254.388 311.348 256.547 308.176C254.223 306.464 251.287 305.465 247.977 305.465C244.665 305.465 241.451 306.464 238.65 308.176Z" fill="#263238"/>
<path opacity="0.4" d="M244.225 299.846C243.876 302.35 245.623 304.38 248.127 304.38C250.631 304.38 252.944 302.35 253.293 299.846C253.642 297.342 251.895 295.312 249.391 295.312C246.887 295.312 244.574 297.342 244.225 299.846Z" fill="#263238"/>
</svg>
